<?xml version="1.0" encoding="utf-8"?>
<!DOCTYPE svg PUBLIC "-//W3C//DTD SVG 1.0//EN" "http://www.w3.org/TR/2001/REC-SVG-20010904/DTD/svg10.dtd">
<svg version="1.0" xmlns="http://www.w3.org/2000/svg" width="1352px" height="918px" viewBox="0 0 1352 918" preserveAspectRatio="xMidYMid meet">
 <g fill="#57aefe">
  <path d="M832.50 627.80 c0 -0.35 0.40 -0.80 0.90 -0.95 0.45 -0.10 1.25 -0.40 1.75 -0.60 0.70 -0.30 0.85 -0.10 0.85 0.95 0 1.15 -0.20 1.30 -1.75 1.30 -1.15 0 -1.75 -0.25 -1.75 -0.70z"/>
  <path d="M529.75 588.95 c-16.85 -1.05 -35 -7.60 -48.20 -17.35 -16.10 -11.90 -25.55 -24.10 -33.25 -42.80 -1.70 -4.10 -3.50 -10.50 -5.15 -18.30 -0.70 -3.40 -0.90 -6.55 -0.85 -15.75 0 -17.20 1.15 -22.15 10.95 -47 2.80 -7.15 11.45 -29.10 19.25 -48.75 7.75 -19.65 17.90 -45.40 22.60 -57.25 4.65 -11.80 11.35 -28.80 14.90 -37.75 26.90 -68 27 -68.15 27.60 -73 1.05 -8.40 -2.30 -19.55 -8 -26.35 -3.30 -3.95 -12.40 -9.30 -18.05 -10.65 -3.95 -0.95 -13.90 -0.40 -17.75 0.95 -6.60 2.35 -12.70 6.60 -16.05 11.30 -4.20 5.90 -3.60 4.55 -19.15 44.25 -2.20 5.65 -6.30 16.10 -9.10 23.25 -2.80 7.15 -6.85 17.50 -9 23 -2.15 5.50 -6.20 15.85 -9 23 -2.80 7.15 -6.85 17.50 -9 23 -2.15 5.50 -6.65 17 -10 25.50 -3.30 8.55 -7.80 20 -9.95 25.50 -4.65 11.80 -9.95 25.35 -14.30 36.50 -1.75 4.40 -5.20 13.25 -7.70 19.65 -5.80 14.80 -12.35 31.55 -18 46 -2.45 6.25 -6.75 17.20 -9.55 24.35 -2.80 7.15 -6.85 17.50 -9 23.05 -2.15 5.50 -4.50 11.25 -5.25 12.75 -2.50 5 -8.25 11.55 -11.95 13.55 -0.85 0.50 -3.35 1.60 -5.55 2.45 -3.60 1.40 -4.55 1.55 -9.50 1.60 -3.85 0 -6.40 -0.25 -8.45 -0.85 -13.30 -3.90 -22.45 -15.80 -22.40 -29.10 0 -5.35 0.80 -8.25 6.10 -21.70 4.75 -12.10 11.50 -29.45 16 -41 2 -5.10 5.60 -14.30 8 -20.50 2.45 -6.20 8.25 -21.15 13 -33.25 4.70 -12.10 10.10 -25.95 12 -30.75 1.90 -4.80 5.50 -14.05 8 -20.50 2.50 -6.45 6.35 -16.25 8.50 -21.75 2.15 -5.50 5.55 -14.15 7.50 -19.25 2 -5.10 5.60 -14.30 8 -20.50 2.45 -6.20 8.05 -20.60 12.50 -32 4.45 -11.40 10.10 -25.80 12.50 -32 2.40 -6.20 6 -15.40 8 -20.50 2 -5.10 5.85 -14.95 8.55 -21.85 2.70 -6.95 4.95 -12.75 4.95 -12.90 0 -0.70 5.35 -11.90 7.40 -15.50 3.75 -6.50 8.95 -13.10 15.10 -19.30 14.75 -14.70 31.05 -23.10 51.75 -26.75 6.15 -1.05 20.95 -1.50 26.30 -0.75 23.30 3.25 42.90 13.20 58.30 29.60 17.80 19.05 26.70 43.60 25.15 69.55 -0.55 8.55 -1.90 16.50 -3.80 22.40 -1.40 4.20 -4.55 12.35 -15.05 39 -3.95 10.05 -10.30 26.15 -14.10 35.75 -3.80 9.65 -10.10 25.60 -14 35.50 -8.15 20.65 -18.70 47.35 -26.55 67.25 -3 7.55 -8.80 22.35 -12.95 32.90 -4.20 10.55 -7.95 20.65 -8.35 22.50 -1.10 4.50 -0.70 13.65 0.75 17.75 1.85 5.30 4.20 8.95 8.30 13.10 6.70 6.80 14 9.85 23.50 9.95 9.50 0.05 17.85 -3.35 24.45 -9.95 4.55 -4.55 5.70 -6.85 13.60 -27.25 7 -18.05 9.45 -24.35 21.20 -54.50 4.45 -11.40 9.65 -24.70 11.50 -29.50 1.85 -4.80 7.05 -18.10 11.50 -29.50 4.45 -11.40 9.65 -24.70 11.50 -29.50 3.50 -9 17.30 -44.45 22.50 -57.75 1.60 -4.10 7.25 -18.50 12.55 -32 5.25 -13.45 10.10 -25.85 10.70 -27.50 11.25 -29.95 23.25 -54.30 33.35 -67.55 8.35 -10.95 19.80 -21.10 29.15 -25.80 7.15 -3.65 17.20 -6.50 26.15 -7.40 11.85 -1.15 29.85 1.60 43.85 6.75 2.50 0.90 5.05 1.80 5.75 2 4.85 1.50 15.65 7.50 22.25 12.45 4.90 3.70 13.65 12.45 17.90 17.95 9.40 12.10 15.75 26.90 18.35 42.60 3.25 19.75 0.95 35.05 -9 60 -1.45 3.60 -4.35 11 -6.50 16.50 -2.15 5.50 -5.95 15.20 -8.40 21.50 -9.15 23.40 -13.65 34.80 -18.60 47.50 -4.95 12.70 -7.65 19.55 -17.90 45.75 -5.90 15.20 -6.65 16.70 -10.35 21.15 -11.15 13.45 -31.60 14.35 -44.05 1.95 -6.25 -6.20 -9.30 -13.05 -9.30 -21.10 0 -5.90 0.40 -7.25 6.70 -23.50 13.95 -35.70 18.50 -47.30 33.65 -86 6 -15.25 12.10 -30.80 13.50 -34.50 1.45 -3.70 3.75 -9.55 5.10 -13 4.55 -11.45 5.35 -14.55 5.35 -20.75 0 -6.15 -0.85 -10.10 -3.20 -15.05 -3.15 -6.60 -8.35 -11.85 -14.95 -15.15 -6.15 -3.10 -8.65 -3.70 -14.55 -3.75 -4.50 0 -5.70 0.20 -8.40 1.30 -11.35 4.65 -18.45 12.80 -28.50 32.65 -2.55 4.95 -8.95 20.70 -14.05 34.50 -1.65 4.40 -4.65 12.30 -6.70 17.50 -2.05 5.25 -5.35 13.65 -7.35 18.75 -2 5.10 -5.60 14.30 -8 20.50 -2.45 6.20 -6.45 16.55 -8.95 23 -2.55 6.45 -5.90 15.15 -7.55 19.25 -1.60 4.15 -5 12.80 -7.50 19.25 -2.50 6.45 -6.35 16.25 -8.50 21.75 -2.15 5.50 -5.55 14.15 -7.50 19.25 -2 5.10 -5.60 14.30 -8 20.50 -2.40 6.20 -6 15.40 -8 20.50 -2 5.10 -5.60 14.30 -8 20.50 -2.40 6.20 -6 15.40 -8 20.50 -7.60 19.55 -10.95 27.85 -12.50 31.25 -11.85 25.60 -34.85 44.95 -61.50 51.75 -11.60 2.95 -19.35 3.70 -31.25 2.95z"/>
  <path d="M904.05 434.50 c-6.50 -1.40 -10.25 -3.20 -14.75 -7.20 -7.75 -6.85 -11.60 -16.65 -10.30 -26.30 0.65 -5 0.80 -5.45 9 -26.25 3.90 -9.90 9.30 -23.60 12 -30.50 2.70 -6.85 7.40 -18.85 10.45 -26.60 3.05 -7.80 8.05 -20.50 11.10 -28.25 3.05 -7.80 7.75 -19.75 10.45 -26.65 2.70 -6.85 7.65 -19.45 11 -28 3.35 -8.50 7.90 -20.10 10.05 -25.70 4.65 -11.90 5.35 -13.30 8.10 -16.80 3.80 -4.80 9.15 -8.60 14.65 -10.35 4.65 -1.45 13.15 -1.60 17.20 -0.25 14.10 4.75 22.25 15.60 22.15 29.60 -0.05 5.05 -0.45 7 -3 13.50 -2 5.20 -6.90 17.70 -13.15 33.75 -2.40 6.20 -6 15.40 -8 20.50 -8.65 22.15 -13.80 35.35 -17 43.50 -1.90 4.80 -5.50 14.05 -8 20.50 -2.50 6.45 -6.35 16.25 -8.50 21.75 -2.15 5.50 -5.55 14.15 -7.50 19.25 -14.70 37.80 -14.15 36.55 -19.30 41.75 -5.70 5.75 -12.05 8.60 -19.95 9 -2.45 0.10 -5.50 0 -6.70 -0.25z"/>
 </g>
 <g fill="#000000">
  <path d="M319 796.20 c-6.65 -0.75 -10.80 -1.45 -14.45 -2.50 -5.15 -1.45 -13.85 -5.35 -17.85 -8 -5.85 -3.90 -14.25 -13.40 -17.60 -19.95 -1 -2 -3 -7.75 -4 -11.50 -2.75 -10.40 -2.55 -27.55 0.45 -37.10 0.50 -1.70 0.95 -3.40 0.95 -3.80 0 -1.20 3.90 -8.75 6.55 -12.65 6.55 -9.70 17 -17.85 27.70 -21.55 7.60 -2.65 17.65 -3.75 26.50 -2.95 11.65 1 19.70 4.25 28.95 11.50 3.20 2.55 9.15 10.20 11.25 14.55 4.55 9.25 6.50 17.75 6.70 28.70 0.10 6.75 0.10 6.80 -1.30 8.60 -0.80 1.10 -2.40 2.30 -3.85 2.90 -2.40 1.05 -2.90 1.05 -39.55 1.05 -37.05 0 -37.05 0 -36.75 1.15 0.20 0.60 0.55 2.25 0.80 3.60 2.15 12 10.65 20.90 22.25 23.35 1.40 0.30 5.90 0.65 10 0.75 11.20 0.35 17.80 -1.05 27.60 -5.70 7.05 -3.40 10.20 -3.90 13.50 -2.25 7.75 4 8.20 14.05 0.85 20.30 -2.15 1.85 -11.20 6.20 -16.20 7.80 -7.20 2.30 -14.45 3.50 -22.75 3.70 -4.40 0.10 -8.80 0.15 -9.75 0z m27.70 -73.80 c-2.25 -12.55 -7.95 -19.80 -17.90 -22.75 -3.25 -0.95 -10.40 -0.95 -13.65 0 -9.30 2.75 -15.80 9.25 -19.45 19.35 -2.05 5.60 -4.95 5 25.05 5 26.20 0 26.20 0 25.95 -1.60z"/>
  <path d="M857.50 795.95 c-9.85 -1 -20.05 -6.60 -24.35 -13.30 -4.60 -7.25 -6.70 -14 -7.65 -25.20 -0.70 -8.25 -0.65 -115.60 0.05 -119.90 0.30 -1.80 1.10 -4.25 1.80 -5.45 1.30 -2.30 4.70 -5.10 6.20 -5.10 0.50 0 1.05 -0.20 1.20 -0.50 0.50 -0.80 9.75 -0.60 12.30 0.25 3.15 1.10 5.90 3.50 7.25 6.45 1.20 2.55 1.20 2.55 1.20 59.50 0 55.25 0.20 63.80 1.55 66.40 0.25 0.50 0.45 1.20 0.45 1.65 0 1.10 1.90 4.30 3.60 6.10 0.85 0.85 2.70 2.10 4.10 2.75 2.30 1 3.35 1.10 10.20 1.15 7.40 0 7.75 0.05 8.60 1.15 3.10 3.80 2.35 15.65 -1.25 20.20 -3 3.75 -12.55 5.20 -25.25 3.85z"/>
  <path d="M946 796.25 c-0.40 -0.10 -2.75 -0.45 -5.25 -0.75 -7.50 -1.05 -15.95 -4.30 -23.45 -9 -8.35 -5.25 -16.95 -17.20 -20.50 -28.30 -3.65 -11.60 -4.15 -26.15 -1.35 -39.30 1.20 -5.50 4.30 -12.80 7.80 -18.45 7.05 -11.20 21.30 -20.75 34.50 -23.05 3.60 -0.60 12.60 -1.50 15.25 -1.50 3.15 0 12.25 0.90 15.25 1.50 10.55 2.15 20.50 7.60 27.90 15.30 8.40 8.70 11.80 15.95 15.40 32.70 0.60 2.90 0.55 18.40 -0.10 21.70 -1.25 6.50 -1.65 7.95 -3.25 12.75 -2 5.95 -3.80 9.55 -7.05 14.05 -3.15 4.45 -9.10 10.25 -13.10 12.85 -6.05 3.90 -15.25 7.50 -22.30 8.80 -2.95 0.50 -18.30 1.10 -19.75 0.70z m13.30 -25.80 c8 -2.45 14.15 -8.30 17.55 -16.60 1.50 -3.70 3.15 -12.85 3.15 -17.60 0 -4.65 -1.25 -12.15 -2.80 -16.80 -1.95 -5.90 -5.80 -10.85 -11.65 -14.90 -2.50 -1.75 -8.80 -3.55 -12.50 -3.55 -3.10 0 -6.85 0.75 -7.75 1.60 -0.30 0.20 -0.95 0.40 -1.45 0.40 -1.45 0 -6.35 3.15 -8.65 5.60 -3.05 3.20 -4.90 6.20 -6.40 10.40 -3.55 9.85 -3.60 23.95 -0.05 34.10 4.70 13.50 18.20 21.15 30.55 17.35z"/>
  <path d="M405.10 795.05 c-4.80 -1.70 -7.65 -5.50 -8.55 -11.40 -0.75 -4.85 -0.75 -88.80 0 -94.65 1.05 -8.75 5.50 -12.50 14.75 -12.50 9.40 0 13.85 4 14.70 13.15 0.35 4 0.75 5.05 1.45 3.95 2.30 -3.75 7.65 -8.70 12.55 -11.65 6.85 -4.15 20.95 -7.20 26.30 -5.65 4.50 1.30 7.20 6.35 7.20 13.55 0 8.05 -4.20 12 -13.75 12.90 -6.45 0.60 -8.10 0.85 -11.25 1.60 -8.35 1.95 -16.05 7.80 -18.45 14 -0.65 1.70 -1.40 4.05 -1.70 5.25 -0.30 1.30 -0.65 13.80 -0.80 32.15 -0.30 29.05 -0.35 30.05 -1.35 32.25 -1.35 2.90 -3.85 5.40 -6.70 6.70 -3.25 1.45 -10.75 1.65 -14.40 0.35z"/>
  <path d="M497.35 795.20 c-2.90 -0.90 -5.65 -3.50 -7.35 -6.95 -1.25 -2.50 -1.25 -2.50 -1.25 -52 0 -49.50 0 -49.50 1.15 -52 2.50 -5.40 6.60 -7.75 13.65 -7.75 2.30 0 5.05 0.35 6.40 0.80 5.05 1.65 8.55 7.05 8.55 13.35 0.05 3.10 0.05 3.10 1.15 1.60 3.35 -4.60 9.25 -9.65 14.25 -12.20 3.50 -1.80 8.05 -3.05 13.10 -3.65 8.45 -1 13.70 -0.50 21.50 1.95 6.75 2.15 15.35 10.45 17.50 16.85 0.30 1 0.75 1.80 1 1.80 0.25 0 1.10 -1.05 1.90 -2.35 3.05 -5 8.50 -9.90 15.15 -13.80 6.65 -3.80 17.90 -5.70 27.70 -4.65 12.35 1.35 21.95 7.75 27.15 18.05 5.20 10.30 6.10 18.95 6.10 58.15 0 33.80 -0.30 36.20 -5.10 40.35 -2.70 2.30 -5.80 3.25 -10.40 3.25 -7.05 0 -11.65 -2.45 -14 -7.35 -1.15 -2.35 -1.15 -2.90 -1.35 -19.15 -0.50 -53.20 -0.50 -53.10 -1.40 -56.50 -0.50 -1.80 -1.15 -3.85 -1.55 -4.55 -1.75 -3.45 -6 -6.95 -8.40 -6.95 -0.70 0 -1.40 -0.20 -1.55 -0.50 -0.40 -0.65 -9.45 -0.65 -11.70 0.05 -6.45 1.95 -11 5.65 -13.60 11 -3.85 7.80 -3.95 8.70 -3.95 41.65 0 19.80 -0.20 29.55 -0.60 31.55 -0.80 3.95 -3 7.05 -6.40 8.95 -2.65 1.50 -3 1.55 -8.50 1.55 -5 0 -6 -0.15 -7.75 -1.10 -2.60 -1.45 -3.25 -2.05 -4.85 -4.15 -2.65 -3.60 -2.55 -2.80 -2.90 -40.50 -0.35 -35.25 -0.35 -35.25 -1.60 -38.65 -0.70 -1.85 -1.90 -4.25 -2.70 -5.40 -1.50 -2.15 -4.85 -4.45 -6.60 -4.45 -0.55 0 -1.20 -0.20 -1.35 -0.50 -0.20 -0.30 -2.65 -0.50 -5.75 -0.50 -3.10 0 -5.55 0.20 -5.75 0.50 -0.15 0.30 -0.75 0.50 -1.35 0.50 -1.60 0 -5.95 2.40 -8.10 4.40 -3.65 3.50 -6.35 8.50 -7.45 13.85 -0.30 1.45 -0.65 15.75 -0.85 33.50 -0.30 29.95 -0.40 32.05 -1.90 35.75 -0.85 2.20 -4.80 5.35 -7.65 6.20 -3.25 1 -9.40 1 -12.60 0z"/>
  <path d="M705.50 795 c-3.20 -1.20 -6.20 -3.90 -7.70 -7 -1.05 -2.25 -1.05 -2.25 -1.05 -76.25 0 -71.15 0.05 -74.05 0.95 -75.75 1.55 -2.95 4.80 -5.95 7.70 -7 2.55 -0.95 3.95 -1 48.25 -1 45.60 0 45.60 0 48.20 1.35 3.70 1.85 5.25 4.55 5.55 9.70 0.40 6.90 -1.90 10.95 -7.45 12.95 -2.60 0.95 -4.05 1 -37.55 1 -34.90 0 -34.90 0 -34.80 22.65 0.15 22.60 0.15 22.60 33.90 22.85 33.75 0.25 33.75 0.25 35.85 1.35 3.25 1.75 4.80 4.80 5.05 10 0.35 6.65 -1.50 10.35 -6.25 12.45 -2.70 1.20 -2.70 1.20 -35.65 1.20 -33 0 -33 0 -33 30.45 0 27.40 -0.10 30.70 -0.85 33.10 -1.20 3.70 -4.60 7.10 -8.20 8.15 -3.65 1.10 -9.55 1 -12.95 -0.20z"/>
  <path d="M1073.60 795.10 c-1.45 -0.45 -3.70 -1.80 -5.10 -3 -4.15 -3.55 -5.30 -5.65 -9.25 -16.60 -0.75 -2.05 -1.65 -4.40 -2 -5.25 -1.60 -3.65 -17.25 -43.45 -18.90 -48 -1.65 -4.55 -2.65 -7.05 -6.10 -15.50 -4.55 -11.20 -4.75 -11.80 -4.75 -13.15 0 -0.70 -0.25 -2 -0.60 -2.90 -0.45 -1.30 -0.45 -2.10 0.10 -3.80 2.35 -7.50 6.35 -10.40 14.30 -10.40 3.50 0 4.65 0.20 6.65 1.25 5 2.50 6.45 5.25 14.30 27.25 0.70 2.05 1.50 4.20 1.75 4.75 0.25 0.55 0.80 2.25 1.25 3.75 0.45 1.50 1.15 3.45 1.50 4.25 0.35 0.85 2.30 5.90 4.25 11.25 1.95 5.35 3.75 10.20 4 10.75 0.20 0.55 1.50 4.10 2.80 7.90 1.30 3.75 2.55 7.10 2.75 7.45 0.50 0.80 1.95 0.10 1.95 -0.95 0 -0.50 1.15 -3.85 2.50 -7.40 3.10 -7.95 3.80 -9.80 7.50 -20.25 1.60 -4.55 4.05 -11.30 5.50 -15 1.40 -3.70 3.90 -10.55 5.55 -15.25 3.35 -9.65 4.65 -12.30 7.25 -15.45 2.50 -3 5.70 -4.30 10.40 -4.30 6 0.05 10.05 2.55 12.85 8.10 1.60 3.20 1.90 3.90 5.90 15.40 1.60 4.55 4.30 11.90 6 16.40 1.70 4.45 3.40 9.20 3.85 10.50 0.40 1.30 0.95 2.80 1.20 3.35 0.20 0.55 1.10 3.05 1.95 5.50 0.80 2.50 2.85 8.10 4.50 12.45 1.70 4.40 3.05 8.35 3.05 8.75 0 1.05 0.95 -0.80 2.85 -5.70 1.45 -3.60 2.70 -7.15 6.15 -17.25 0.65 -1.80 2.25 -6.15 3.60 -9.75 1.35 -3.55 2.65 -7.05 2.90 -7.75 1.80 -5.55 8.45 -23.90 10.45 -28.85 3.15 -7.90 7.45 -11.15 14.75 -11.15 5.85 0 9.70 2.20 11.50 6.60 1.50 3.50 0.75 13 -1.20 15.65 -0.20 0.30 -0.55 1.05 -0.75 1.75 -0.20 0.70 -0.65 1.95 -1.05 2.75 -1.05 2.40 -3.75 9.30 -4.55 11.75 -0.40 1.25 -1 2.95 -1.35 3.75 -0.35 0.85 -2.65 6.55 -5.05 12.75 -2.40 6.20 -4.55 11.70 -4.75 12.25 -0.25 0.55 -1.45 3.70 -2.75 7 -1.25 3.30 -3.20 8.20 -4.30 10.90 -1.10 2.70 -2.85 7.30 -3.90 10.25 -4.80 13.25 -7.80 18.50 -12.35 21.40 -3.50 2.25 -6.40 2.90 -11.45 2.55 -4.80 -0.25 -7.35 -1.30 -10.45 -4.25 -2.60 -2.50 -3.80 -4.50 -6.05 -10.10 -1 -2.60 -2.20 -5.50 -2.60 -6.35 -0.75 -1.75 -1.05 -2.55 -4.65 -12.65 -1.35 -3.70 -3.45 -9.35 -4.65 -12.50 -3.25 -8.30 -5.35 -13.90 -6.35 -16.75 -2.40 -6.75 -3.90 -10.45 -4.35 -10.60 -0.30 -0.10 -0.85 1 -1.30 2.45 -0.95 3.35 -3.65 10.65 -6.35 17.35 -1.10 2.90 -2.50 6.60 -3.05 8.25 -0.55 1.70 -1.20 3.45 -1.50 3.90 -0.25 0.50 -0.45 1.35 -0.45 1.85 0 0.55 -0.20 1.10 -0.45 1.25 -0.25 0.15 -0.55 0.80 -0.70 1.40 -0.15 0.65 -1.30 3.85 -2.55 7.15 -1.30 3.30 -3.50 9.05 -4.85 12.75 -3.15 8.50 -3.25 8.65 -5.85 11.55 -3.25 3.65 -6.75 5.15 -12.30 5.30 -3.30 0.10 -5.30 -0.10 -7.20 -0.75z"/>
  <path d="M102.85 793 c-4.70 -1.80 -6.85 -4.10 -8.45 -8.85 -0.85 -2.65 -0.90 -6.10 -0.90 -73.05 0 -68.50 0 -70.35 1 -73.55 1.15 -4 3.35 -6.35 7.60 -8.30 2.80 -1.30 2.80 -1.30 35.75 -1.10 18.10 0.15 33.90 0.40 35.15 0.55 4.80 0.70 17.75 3.50 19.75 4.30 0.55 0.25 2.30 0.90 3.90 1.45 9.10 3.30 19.70 10.40 26.60 18 9.20 10.05 14.10 19.90 17.30 34.80 1.65 7.50 2.20 13.50 2.20 23.75 0 10.75 -0.50 15.30 -2.70 25.75 -3.80 17.45 -14.15 32.90 -28.70 42.70 -4.50 3 -9.30 5.65 -12.85 7.05 -1.50 0.60 -3.20 1.30 -3.75 1.55 -3.35 1.45 -15.30 4.10 -24.65 5.45 -2.20 0.30 -15.40 0.50 -34.25 0.50 -28.70 -0.05 -30.75 -0.10 -33 -1z m63.90 -27.50 c12.50 -2.20 20.15 -5.85 27.70 -13.15 10 -9.70 15.25 -26.50 14.30 -45.60 -0.85 -17.55 -6.45 -30.85 -16.55 -39.50 -11.25 -9.60 -24.30 -12.55 -53.70 -12.15 -12.25 0.15 -12.25 0.15 -12.40 55.80 -0.10 55.60 -0.10 55.60 17.35 55.60 15.30 0 18.15 -0.10 23.30 -1z"/>
  <path d="M731 581 c-2.55 -0.45 -3.75 -1.25 -5 -3.25 -2.20 -3.55 -2.30 -3.30 18.45 -49.15 10.50 -23.20 19.75 -43.20 20.60 -44.40 3.55 -5.20 11.65 -6 15.75 -1.60 2.30 2.50 2.50 2.85 11.45 22.70 4.60 10.15 13.20 29.15 19.15 42.20 11.70 25.80 12.15 27.15 10.15 30.35 -1.40 2.25 -3.70 3.30 -7.15 3.25 -6 -0.10 -7.20 -1.55 -13.30 -15.75 -1.85 -4.40 -3.55 -7.90 -3.75 -7.90 -0.20 0.05 -11.10 0.05 -24.20 0.05 -23.90 0 -23.90 0 -25.85 4.90 -2.70 6.75 -6.05 13.80 -7.30 15.60 -1.80 2.55 -5.30 3.70 -9 3z m57.25 -40.05 c0.15 -0.20 -3.05 -8.20 -7.10 -17.85 -4.05 -9.65 -7.55 -17.40 -7.75 -17.20 -0.20 0.25 -11.85 27.35 -14.75 34.45 -0.10 0.30 0.30 0.70 0.95 0.80 1.70 0.35 28.25 0.15 28.65 -0.20z"/>
  <path d="M882 581.15 c-2.50 -0.35 -5.05 -1.85 -6.15 -3.60 -1.10 -1.80 -1.10 -1.80 -1.10 -47.05 0 -50.55 -0.25 -47.20 3.55 -49.50 1.40 -0.90 2.60 -1.15 5.15 -1.15 5.65 -0.05 8.25 2.20 9.10 7.80 0.30 1.90 0.45 19.45 0.35 45.10 -0.15 42 -0.15 42 -1.25 44.05 -1.75 3.25 -5.45 4.90 -9.65 4.35z"/>
  <path d="M663.10 580.40 c-2.95 -0.65 -6.30 -3.90 -7.10 -6.90 -0.75 -2.75 -0.35 -6.55 0.85 -8.60 0.50 -0.85 1.75 -2.25 2.80 -3.10 1.70 -1.35 2.40 -1.55 5.60 -1.70 4.65 -0.25 7.45 0.95 9.55 4.05 1.30 1.90 1.45 2.50 1.45 6.10 -0.05 3.50 -0.20 4.25 -1.40 6.05 -2.40 3.55 -7.05 5.20 -11.75 4.10z"/>
 </g>
 <g fill="#ffffff">
  <path d="M396.25 736.50 c0 -24.90 0.05 -35.05 0.10 -22.65 0.10 12.45 0.10 32.85 0 45.25 -0.05 12.45 -0.10 2.30 -0.10 -22.60z"/>
  <path d="M488.75 736.50 c0 -24.90 0.05 -35.05 0.10 -22.65 0.10 12.45 0.10 32.85 0 45.25 -0.05 12.45 -0.10 2.30 -0.10 -22.60z"/>
  <path d="M944.60 771.95 c-5.45 -1.75 -10.95 -6 -14.40 -11.15 -7.55 -11.35 -7.55 -38.10 -0.05 -49.30 3.15 -4.75 9.60 -10 12.20 -10 0.50 0 1.15 -0.20 1.45 -0.40 2.20 -1.95 12.10 -2.15 17.75 -0.40 7.70 2.35 14.40 9 17 16.75 3.90 11.60 3.80 28.05 -0.20 37.90 -3.40 8.30 -9.55 14.15 -17.55 16.60 -4.55 1.40 -11.75 1.40 -16.20 0z"/>
  <path d="M873.90 770.65 c0.30 -0.10 0.90 -0.10 1.25 0 0.30 0.15 0.05 0.25 -0.65 0.25 -0.70 0 -0.95 -0.10 -0.60 -0.25z"/>
  <path d="M124.60 710.90 c0.15 -57.15 0.15 -57.15 13.90 -57.30 31.10 -0.35 43.75 2.45 55.20 12.15 7.25 6.20 12.50 15.45 14.75 26 0.30 1.40 0.75 3.50 1 4.75 1.30 6 1.10 21.90 -0.40 31 -0.50 3.10 -2.95 10.70 -4.60 14.30 -4.85 10.60 -14.10 18.70 -25.75 22.60 -9.10 3.10 -14.10 3.60 -35.25 3.60 -18.95 0 -18.95 0 -18.85 -57.10z"/>
  <path d="M352 767.25 c0 -0.15 0.10 -0.25 0.25 -0.25 0.15 0 0.25 0.10 0.25 0.25 0 0.15 -0.10 0.25 -0.25 0.25 -0.15 0 -0.25 -0.10 -0.25 -0.25z"/>
  <path d="M353 766.75 c0 -0.15 0.10 -0.25 0.25 -0.25 0.15 0 0.25 0.10 0.25 0.25 0 0.15 -0.10 0.25 -0.25 0.25 -0.15 0 -0.25 -0.10 -0.25 -0.25z"/>
  <path d="M354.50 766 c0.40 -0.25 1 -0.50 1.25 -0.50 0.30 0 0.15 0.25 -0.25 0.50 -0.40 0.25 -0.95 0.50 -1.25 0.50 -0.25 0 -0.15 -0.25 0.25 -0.50z"/>
  <path d="M359.25 764 c0.55 -0.25 1.35 -0.45 1.75 -0.45 0.45 0 0.40 0.20 -0.25 0.45 -0.55 0.25 -1.35 0.45 -1.75 0.45 -0.45 0 -0.40 -0.20 0.25 -0.45z"/>
  <path d="M292.75 723.15 c0.90 -6.40 4.45 -13.40 9.35 -18.25 5.40 -5.45 10.90 -7.55 19.90 -7.55 6.15 0 8.90 0.55 13.35 2.85 6.05 3.05 10.85 10.30 12.40 18.80 0.45 2.35 0.90 4.75 1.05 5.40 0.20 1.10 0.20 1.10 -28.05 1.10 -28.30 0 -28.30 0 -28 -2.35z"/>
  <path d="M442.50 680.50 c0.95 -0.55 2 -0.95 2.25 -0.95 0.30 0 -0.30 0.40 -1.25 0.95 -0.95 0.55 -1.95 0.95 -2.25 0.95 -0.25 0 0.30 -0.40 1.25 -0.95z"/>
  <path d="M605.85 679.95 c0.35 -0.35 0.75 -0.50 0.90 -0.35 0.15 0.15 -0.10 0.45 -0.60 0.60 -0.70 0.30 -0.75 0.25 -0.30 -0.25z"/>
  <path d="M299 679.75 c0 -0.15 0.10 -0.25 0.25 -0.25 0.15 0 0.25 0.10 0.25 0.25 0 0.15 -0.10 0.25 -0.25 0.25 -0.15 0 -0.25 -0.10 -0.25 -0.25z"/>
  <path d="M929.15 679.65 c0.20 -0.15 0.50 -0.15 0.70 0 0.15 0.20 0 0.35 -0.35 0.35 -0.35 0 -0.50 -0.15 -0.35 -0.35z"/>
  <path d="M300.65 679.15 c0.20 -0.15 0.50 -0.15 0.70 0 0.15 0.20 0 0.35 -0.35 0.35 -0.35 0 -0.50 -0.15 -0.35 -0.35z"/>
  <path d="M445.65 679.15 c0.20 -0.15 0.50 -0.15 0.70 0 0.15 0.20 0 0.35 -0.35 0.35 -0.35 0 -0.50 -0.15 -0.35 -0.35z"/>
  <path d="M536.35 678.95 c0.35 -0.35 0.75 -0.50 0.90 -0.35 0.15 0.15 -0.10 0.45 -0.60 0.60 -0.70 0.30 -0.75 0.25 -0.30 -0.25z"/>
  <path d="M930.90 679.15 c0.35 -0.15 0.80 -0.10 0.95 0.05 0.20 0.15 -0.10 0.30 -0.65 0.25 -0.55 0 -0.70 -0.15 -0.30 -0.30z"/>
  <path d="M1031.75 679 c0.15 -0.25 0.40 -0.50 0.55 -0.50 0.15 0 0.10 0.25 -0.05 0.50 -0.15 0.30 -0.40 0.50 -0.55 0.50 -0.15 0 -0.10 -0.20 0.05 -0.50z"/>
  <path d="M302 678.75 c0 -0.15 0.10 -0.25 0.25 -0.25 0.15 0 0.25 0.10 0.25 0.25 0 0.15 -0.10 0.25 -0.25 0.25 -0.15 0 -0.25 -0.10 -0.25 -0.25z"/>
  <path d="M447.15 678.65 c0.20 -0.15 0.50 -0.15 0.70 0 0.15 0.20 0 0.35 -0.35 0.35 -0.35 0 -0.50 -0.15 -0.35 -0.35z"/>
  <path d="M608.65 678.65 c0.20 -0.15 0.50 -0.15 0.70 0 0.15 0.20 0 0.35 -0.35 0.35 -0.35 0 -0.50 -0.15 -0.35 -0.35z"/>
  <path d="M932.65 678.65 c0.20 -0.15 0.50 -0.15 0.70 0 0.15 0.20 0 0.35 -0.35 0.35 -0.35 0 -0.50 -0.15 -0.35 -0.35z"/>
  <path d="M1113.35 678.45 c0.35 -0.35 0.75 -0.50 0.90 -0.35 0.15 0.15 -0.10 0.45 -0.60 0.60 -0.70 0.30 -0.75 0.25 -0.30 -0.25z"/>
  <path d="M303.65 678.15 c0.20 -0.15 0.50 -0.15 0.70 0 0.15 0.20 0 0.35 -0.35 0.35 -0.35 0 -0.50 -0.15 -0.35 -0.35z"/>
  <path d="M402.50 678.30 c0 -0.10 0.35 -0.35 0.80 -0.50 0.40 -0.15 0.60 -0.10 0.45 0.20 -0.30 0.50 -1.25 0.70 -1.25 0.30z"/>
  <path d="M448.65 678.15 c0.20 -0.15 0.50 -0.15 0.70 0 0.15 0.20 0 0.35 -0.35 0.35 -0.35 0 -0.50 -0.15 -0.35 -0.35z"/>
  <path d="M495 678.25 c0 -0.15 0.10 -0.25 0.25 -0.25 0.15 0 0.25 0.10 0.25 0.25 0 0.15 -0.10 0.25 -0.25 0.25 -0.15 0 -0.25 -0.10 -0.25 -0.25z"/>
  <path d="M610.75 678 c1.35 -0.60 2.15 -0.60 1.25 0 -0.40 0.25 -1.10 0.45 -1.50 0.45 -0.50 0 -0.40 -0.15 0.25 -0.45z"/>
  <path d="M934.75 678 c1.35 -0.60 2.15 -0.60 1.25 0 -0.40 0.25 -1.10 0.45 -1.50 0.45 -0.50 0 -0.40 -0.15 0.25 -0.45z"/>
  <path d="M305.15 677.65 c0.20 -0.15 0.50 -0.15 0.70 0 0.15 0.20 0 0.35 -0.35 0.35 -0.35 0 -0.50 -0.15 -0.35 -0.35z"/>
  <path d="M450.15 677.65 c0.20 -0.15 0.50 -0.15 0.70 0 0.15 0.20 0 0.35 -0.35 0.35 -0.35 0 -0.50 -0.15 -0.35 -0.35z"/>
  <path d="M496.15 677.65 c0.20 -0.15 0.50 -0.15 0.70 0 0.15 0.20 0 0.35 -0.35 0.35 -0.35 0 -0.50 -0.15 -0.35 -0.35z"/>
  <path d="M540.15 677.65 c0.20 -0.15 0.50 -0.15 0.70 0 0.15 0.20 0 0.35 -0.35 0.35 -0.35 0 -0.50 -0.15 -0.35 -0.35z"/>
  <path d="M1034 677.75 c0 -0.15 0.10 -0.25 0.25 -0.25 0.15 0 0.25 0.10 0.25 0.25 0 0.15 -0.10 0.25 -0.25 0.25 -0.15 0 -0.25 -0.10 -0.25 -0.25z"/>
  <path d="M309.40 676.90 c0.30 -0.30 0.90 -0.40 1.40 -0.30 0.70 0.15 0.60 0.25 -0.45 0.50 -0.95 0.15 -1.25 0.10 -0.95 -0.20z"/>
  <path d="M405.75 677 c0.55 -0.25 1.35 -0.45 1.75 -0.45 0.45 0 0.40 0.20 -0.25 0.45 -0.55 0.25 -1.35 0.45 -1.75 0.45 -0.45 0 -0.40 -0.20 0.25 -0.45z"/>
  <path d="M453.90 676.90 c0.30 -0.30 0.90 -0.40 1.40 -0.30 0.70 0.15 0.60 0.25 -0.45 0.50 -0.95 0.15 -1.25 0.10 -0.95 -0.20z"/>
  <path d="M541.90 677.15 c0.35 -0.15 0.80 -0.10 0.95 0.05 0.20 0.15 -0.10 0.30 -0.65 0.25 -0.55 0 -0.70 -0.15 -0.30 -0.30z"/>
  <path d="M614.50 677 c0.70 -0.20 1.70 -0.40 2.25 -0.40 0.80 0 0.75 0.10 -0.25 0.40 -0.70 0.20 -1.70 0.40 -2.25 0.40 -0.80 0 -0.75 -0.10 0.25 -0.40z"/>
  <path d="M939.65 677.15 c0.20 -0.15 0.50 -0.15 0.70 0 0.15 0.20 0 0.35 -0.35 0.35 -0.35 0 -0.50 -0.15 -0.35 -0.35z"/>
  <path d="M1036 677 c0.40 -0.25 1.20 -0.50 1.70 -0.50 1.30 0 0.90 0.30 -0.95 0.70 -1.10 0.25 -1.30 0.20 -0.75 -0.20z"/>
  <path d="M1116.75 677 c0.15 -0.25 0.90 -0.50 1.60 -0.50 1.60 0 1.40 0.25 -0.50 0.70 -0.95 0.20 -1.30 0.15 -1.10 -0.20z"/>
  <path d="M499.15 676.65 c0.20 -0.15 0.50 -0.15 0.70 0 0.15 0.20 0 0.35 -0.35 0.35 -0.35 0 -0.50 -0.15 -0.35 -0.35z"/>
  <path d="M543.90 676.65 c0.35 -0.15 0.80 -0.10 0.95 0.05 0.20 0.15 -0.10 0.30 -0.65 0.25 -0.55 0 -0.70 -0.15 -0.30 -0.30z"/>
  <path d="M941.40 676.65 c0.30 -0.10 0.90 -0.10 1.25 0 0.30 0.15 0.05 0.25 -0.65 0.25 -0.70 0 -0.95 -0.10 -0.60 -0.25z"/>
  <path d="M1197.40 676.65 c0.30 -0.10 0.90 -0.10 1.25 0 0.30 0.15 0.05 0.25 -0.65 0.25 -0.70 0 -0.95 -0.10 -0.60 -0.25z"/>
  <path d="M318.65 675.85 c1.15 -0.30 3 -0.30 4.75 0 2.80 0.45 2.75 0.50 -1.90 0.45 -3.95 0 -4.45 -0.05 -2.85 -0.45z"/>
  <path d="M460.25 675.95 c1.30 -0.50 3.85 -0.55 4.60 -0.05 0.30 0.20 -0.80 0.40 -2.50 0.40 -1.95 0.05 -2.70 -0.10 -2.10 -0.35z"/>
  <path d="M551.40 675.90 c1.35 -0.30 2.90 -0.30 4 0 1.60 0.40 1.30 0.45 -2.15 0.45 -3.70 0 -3.85 -0.05 -1.85 -0.45z"/>
  <path d="M623.85 675.90 c0.25 -0.50 3.35 -0.40 5.40 0.10 1.05 0.25 0.45 0.35 -2.10 0.30 -1.95 0 -3.45 -0.20 -3.30 -0.40z"/>
  <path d="M950.90 675.80 c1.30 -0.25 2.90 -0.25 4.25 0.05 1.90 0.45 1.70 0.50 -2.15 0.45 -3.85 0 -4.05 -0.05 -2.10 -0.50z"/>
  <path d="M835.65 626.15 c0.45 -0.10 1.25 -0.10 1.75 0 0.45 0.15 0.05 0.25 -0.90 0.25 -0.95 0 -1.35 -0.10 -0.85 -0.25z"/>
  <path d="M756.95 542.65 c-1.30 -0.20 -1.30 -0.20 7.35 -20.70 4.80 -11.25 8.70 -20.70 8.70 -20.95 0 -1.85 1.75 1.95 9.55 20.40 8.80 20.85 8.80 20.85 7 21.20 -1.80 0.35 -30.15 0.40 -32.60 0.05z"/>
  <path d="M539.65 528.15 c0.20 -0.15 0.50 -0.15 0.70 0 0.15 0.20 0 0.35 -0.35 0.35 -0.35 0 -0.50 -0.15 -0.35 -0.35z"/>
  <path d="M968.50 185.25 c0 -0.15 0.10 -0.25 0.25 -0.25 0.15 0 0.25 0.10 0.25 0.25 0 0.15 -0.10 0.25 -0.25 0.25 -0.15 0 -0.25 -0.10 -0.25 -0.25z"/>
  <path d="M486 134.25 c0 -0.15 0.10 -0.25 0.25 -0.25 0.15 0 0.25 0.10 0.25 0.25 0 0.15 -0.10 0.25 -0.25 0.25 -0.15 0 -0.25 -0.10 -0.25 -0.25z"/>
  <path d="M492.65 133.15 c0.45 -0.10 1.15 -0.10 1.50 0 0.30 0.15 -0.05 0.25 -0.90 0.25 -0.80 0 -1.10 -0.10 -0.60 -0.25z"/>
  <path d="M762.40 130.15 c0.35 -0.15 0.80 -0.10 0.95 0.05 0.20 0.15 -0.10 0.30 -0.65 0.25 -0.55 0 -0.70 -0.15 -0.30 -0.30z"/>
 </g>
</svg>