<?xml version="1.0" standalone="no"?>
<!DOCTYPE svg PUBLIC "-//W3C//DTD SVG 20010904//EN"
 "http://www.w3.org/TR/2001/REC-SVG-20010904/DTD/svg10.dtd">
<svg version="1.0" xmlns="http://www.w3.org/2000/svg"
 width="800.000000pt" height="800.000000pt" viewBox="0 0 800.000000 800.000000"
 preserveAspectRatio="xMidYMid meet">
<metadata>
Created by potrace 1.14, written by Peter Selinger 2001-2017
</metadata>
<g transform="translate(0.000000,800.000000) scale(0.100000,-0.100000)"
fill="#000000" stroke="none">
<path d="M1 4443 l0 -3558 24 110 c39 183 456 1908 920 3805 555 2269 582
2372 689 2576 133 256 326 455 533 552 57 27 61 27 263 27 l205 0 69 -38 c322
-178 528 -479 661 -964 47 -169 63 -293 71 -528 13 -413 34 -310 -555 -2710
-316 -1288 -389 -1590 -436 -1810 -36 -165 -37 -175 -32 -325 4 -120 9 -170
26 -220 47 -147 164 -295 254 -319 69 -20 165 -10 221 23 53 31 109 93 143
159 51 101 161 535 743 2922 554 2273 649 2644 761 2980 95 286 241 562 366
696 57 61 153 135 208 160 39 18 -28 19 -2547 19 l-2588 0 1 -3557z"/>
<path d="M5568 7985 c75 -23 208 -96 295 -161 234 -176 392 -436 505 -831 71
-249 77 -298 77 -658 0 -345 -1 -349 -66 -645 -66 -296 -565 -2341 -634 -2595
-20 -71 -49 -159 -66 -195 -31 -66 -94 -141 -139 -165 -40 -20 -112 -26 -171
-14 -44 9 -62 20 -101 60 -52 53 -108 156 -127 234 -17 67 -15 280 3 380 23
130 73 343 326 1383 360 1488 346 1419 337 1622 -8 174 -58 314 -156 436 -56
70 -93 86 -205 88 -82 1 -94 -1 -123 -23 -64 -48 -151 -196 -218 -371 -44
-113 -119 -388 -275 -1010 -113 -453 -224 -904 -726 -2970 -226 -926 -404
-1627 -439 -1729 -77 -220 -194 -417 -340 -569 -120 -126 -211 -190 -330 -233
-48 -18 29 -18 2478 -19 l2527 0 -1 3258 c-1 1791 -4 3246 -6 3232 -25 -159
-153 -702 -463 -1961 -259 -1054 -395 -1582 -424 -1645 -72 -156 -223 -218
-352 -144 -118 67 -188 216 -201 427 -7 126 2 185 77 508 151 642 725 2956
775 3119 56 183 100 258 178 298 48 24 141 28 199 9 70 -23 169 -164 203 -287
11 -43 13 31 14 569 l1 617 -1237 -1 c-1045 0 -1231 -2 -1195 -14z m-112
-5627 c64 -43 109 -104 196 -267 179 -334 653 -1353 798 -1716 89 -223 88
-297 -6 -329 -90 -31 -149 -15 -206 55 -20 24 -73 114 -117 199 -94 179 -130
220 -218 247 -52 16 -103 18 -523 18 -419 0 -471 -2 -523 -18 -87 -27 -126
-69 -198 -210 -70 -138 -134 -241 -171 -275 -35 -32 -88 -38 -143 -18 -114 44
-113 120 4 406 135 332 451 1030 611 1355 148 299 239 453 310 527 50 52 60
58 97 58 29 0 54 -9 89 -32z m1538 -3 c98 -75 100 -100 91 -1155 -6 -830 -14
-1033 -39 -1093 -17 -43 -105 -82 -165 -74 -44 6 -114 47 -136 81 -31 47 -36
240 -32 1172 4 975 6 1007 55 1056 26 26 106 49 154 44 20 -2 53 -16 72 -31z"/>
<path d="M5352 1884 c-44 -69 -389 -855 -408 -928 -6 -23 -4 -24 78 -31 135
-11 775 -2 788 11 9 9 -3 48 -45 150 -76 189 -241 561 -318 718 l-63 129 -32
-49z"/>
<path d="M2379 6929 c-25 -4 -61 -15 -79 -24 -47 -24 -118 -92 -145 -139 -62
-109 -115 -318 -946 -3721 -305 -1248 -585 -2377 -615 -2475 -35 -114 -67
-174 -122 -229 -100 -99 -251 -96 -344 7 -47 52 -94 145 -112 220 -13 53 -14
33 -15 -255 l-1 -313 1303 0 c1278 1 1301 1 1255 19 -61 24 -195 113 -277 185
-225 196 -390 519 -481 941 -32 148 -46 448 -32 688 13 226 -3 154 392 1767
607 2476 610 2491 626 2676 8 104 -11 282 -41 367 -38 111 -124 225 -198 263
-40 21 -113 31 -168 23z"/>
</g>
</svg>
