<?xml version="1.0" standalone="no"?>
<!DOCTYPE svg PUBLIC "-//W3C//DTD SVG 20010904//EN"
 "http://www.w3.org/TR/2001/REC-SVG-20010904/DTD/svg10.dtd">
<svg version="1.0" xmlns="http://www.w3.org/2000/svg"
 width="500.000000pt" height="500.000000pt" viewBox="0 0 500.000000 500.000000"
 preserveAspectRatio="xMidYMid meet">

<g transform="translate(0.000000,500.000000) scale(0.100000,-0.100000)"
fill="#000000" stroke="none">
<path d="M2724 2266 c-17 -8 -36 -26 -43 -43 -16 -39 -11 -295 6 -300 9 -3 13
22 15 94 l3 98 38 3 c50 4 48 22 -3 22 -39 0 -40 1 -40 35 0 40 29 75 61 75
11 0 19 5 17 12 -6 18 -20 19 -54 4z"/>
<path d="M2827 2274 c-4 -4 -7 -86 -7 -181 0 -135 3 -174 13 -171 9 4 13 49
15 173 2 154 -3 197 -21 179z"/>
<path d="M1690 2090 l0 -170 66 0 c59 0 68 3 95 29 29 29 29 31 29 141 0 110
0 112 -29 141 -27 26 -36 29 -95 29 l-66 0 0 -170z m144 118 c12 -17 16 -48
16 -120 0 -118 -12 -138 -85 -138 l-45 0 0 140 0 140 49 0 c40 0 53 -4 65 -22z"/>
<path d="M1969 2127 c-26 -20 -39 -53 -39 -102 0 -38 5 -52 29 -76 24 -23 38
-29 74 -29 28 0 49 6 57 15 19 23 6 28 -34 14 -32 -12 -39 -11 -63 8 -16 11
-29 30 -31 42 -3 20 1 21 61 21 73 0 93 14 83 55 -14 55 -93 86 -137 52z m92
-28 c35 -35 22 -54 -44 -57 -52 -3 -57 -1 -57 18 0 26 34 60 60 60 11 0 29 -9
41 -21z"/>
<path d="M2154 2127 c-3 -8 -3 -56 -2 -107 4 -120 23 -134 30 -21 5 88 15 106
59 116 16 4 29 11 29 16 0 15 -52 10 -72 -8 -17 -15 -18 -15 -18 0 0 20 -18
23 -26 4z"/>
<path d="M2310 2029 c0 -84 3 -110 13 -107 8 3 13 32 15 86 3 74 5 84 27 98
18 12 28 13 44 4 32 -17 41 -43 41 -120 0 -53 3 -71 13 -68 8 3 13 32 15 86 3
75 5 84 27 98 23 15 27 15 50 0 22 -14 24 -23 27 -98 2 -54 7 -83 16 -86 9 -3
12 19 12 85 0 81 -2 92 -23 111 -30 28 -78 29 -102 2 l-18 -20 -22 20 c-23 22
-74 27 -92 9 -8 -8 -13 -8 -17 0 -19 30 -26 2 -26 -100z"/>
<path d="M2929 2114 c-20 -21 -24 -36 -24 -86 0 -53 3 -62 28 -84 65 -56 147
-10 147 82 0 75 -30 113 -91 114 -26 0 -42 -7 -60 -26z m104 -22 c12 -10 17
-30 17 -63 0 -39 -5 -51 -25 -67 -15 -12 -34 -18 -45 -15 -63 17 -68 139 -7
162 23 9 32 7 60 -17z"/>
<path d="M3110 2131 c0 -26 74 -211 84 -211 7 0 23 35 38 78 l25 77 23 -77
c13 -43 29 -78 35 -78 12 0 85 181 85 209 0 7 -6 11 -12 9 -7 -3 -26 -42 -43
-87 l-30 -83 -25 79 c-14 43 -29 77 -35 76 -5 -1 -20 -32 -32 -69 -13 -37 -25
-69 -27 -71 -2 -2 -17 32 -33 76 -15 45 -34 81 -40 81 -7 0 -13 -4 -13 -9z"/>
</g>
</svg>
