<?xml version="1.0" standalone="no"?>
<!DOCTYPE svg PUBLIC "-//W3C//DTD SVG 20010904//EN"
 "http://www.w3.org/TR/2001/REC-SVG-20010904/DTD/svg10.dtd">
<svg version="1.0" xmlns="http://www.w3.org/2000/svg"
 width="500.000000pt" height="500.000000pt" viewBox="0 0 500.000000 500.000000"
 preserveAspectRatio="xMidYMid meet">

<g transform="translate(0.000000,500.000000) scale(0.100000,-0.100000)"
fill="#000000" stroke="none">
<path d="M1717 2313 c-4 -3 -7 -64 -7 -135 l0 -128 66 0 c116 0 164 40 164
139 0 86 -58 131 -171 131 -25 0 -49 -3 -52 -7z m143 -38 c34 -18 55 -72 46
-120 -9 -49 -47 -75 -107 -75 l-49 0 0 105 0 105 40 0 c23 0 54 -7 70 -15z"/>
<path d="M2660 2300 c-11 -11 -20 -29 -20 -40 0 -11 -7 -23 -15 -26 -8 -4 -15
-10 -15 -15 0 -5 7 -9 15 -9 12 0 15 -16 15 -80 0 -64 3 -80 15 -80 12 0 15
16 15 80 0 79 0 80 25 80 14 0 25 5 25 10 0 6 -11 10 -25 10 -20 0 -25 5 -25
26 0 19 7 28 30 35 16 6 27 15 24 20 -9 16 -43 10 -64 -11z"/>
<path d="M2760 2185 c0 -113 2 -135 15 -135 13 0 15 22 15 135 0 113 -2 135
-15 135 -13 0 -15 -22 -15 -135z"/>
<path d="M2005 2215 c-19 -18 -25 -35 -25 -70 0 -61 32 -95 88 -95 42 0 83 22
64 34 -6 4 -21 2 -32 -4 -37 -20 -90 9 -90 49 0 7 26 11 65 11 l65 0 0 30 c0
65 -87 94 -135 45z m86 -5 c10 -6 19 -20 19 -30 0 -17 -7 -20 -44 -20 -53 0
-64 12 -36 40 23 23 33 24 61 10z"/>
<path d="M2187 2233 c-4 -3 -7 -46 -7 -95 0 -81 2 -88 20 -88 18 0 20 7 20 68
0 73 10 92 47 92 14 0 23 6 23 15 0 20 -39 19 -62 -2 -17 -15 -18 -15 -18 0 0
17 -11 22 -23 10z"/>
<path d="M2320 2145 c0 -78 3 -95 15 -95 12 0 15 14 15 69 0 75 12 95 52 89
21 -3 23 -8 26 -80 2 -66 5 -78 20 -78 15 0 18 11 20 72 3 80 9 91 43 86 23
-3 24 -8 27 -80 3 -70 5 -78 22 -78 18 0 20 7 20 65 0 35 -5 76 -12 90 -15 33
-54 43 -89 22 -24 -13 -30 -13 -40 -1 -14 17 -50 18 -68 2 -11 -10 -14 -10
-18 0 -3 6 -11 12 -19 12 -11 0 -14 -20 -14 -95z"/>
<path d="M2864 2217 c-22 -19 -27 -33 -28 -69 -1 -62 30 -98 86 -98 56 0 88
34 88 95 0 35 -6 52 -25 70 -32 33 -84 33 -121 2z m110 -45 c20 -70 -27 -122
-79 -88 -23 15 -26 23 -23 64 2 37 8 49 27 58 33 17 64 3 75 -34z"/>
<path d="M3040 2228 c0 -6 12 -49 27 -95 35 -107 51 -109 83 -10 l23 72 25
-73 c32 -96 46 -93 84 18 32 97 33 100 13 100 -9 0 -22 -25 -35 -70 -11 -38
-22 -70 -24 -70 -2 0 -14 32 -25 70 -14 44 -27 70 -36 70 -8 0 -23 -27 -36
-70 -13 -39 -26 -67 -29 -63 -4 5 -15 36 -25 71 -11 36 -24 62 -32 62 -7 0
-13 -5 -13 -12z"/>
</g>
</svg>
